<svg height="512" viewBox="0 0 58 58" width="512" xmlns="http://www.w3.org/2000/svg"><g id="Page-1" fill="none" fill-rule="evenodd"><g id="043---Distance" fill-rule="nonzero"><path id="Shape" d="m55.9 46.45c.7990596-1.1141867 1.1845274-2.472165 1.09-3.84-.280062-3.2084036-2.9897286-5.6562667-6.21-5.61h-8.78c-.5522847 0-1 .4477153-1 1v19c0 .5522847.4477153 1 1 1h10c3.3137085 0 6-2.6862915 6-6v-1c.0005636-1.7511175-.7670766-3.4143381-2.1-4.55zm-10.9-5.45h6c1.1045695 0 2 .8954305 2 2s-.8954305 2-2 2h-6zm9 11c-.0032948 1.1032019-.8967981 1.9967052-2 2h-7v-5h7c1.1032019.0032948 1.9967052.8967981 2 2z" fill="#3b97d3"/><path id="Shape" d="m18.56 19.68-6.33-19c-.1411508-.40464661-.5214529-.67686288-.95-.68h-3.56c-.42854706.00313712-.8088492.27535339-.95.68l-6.33 19c-.1032336.3056381-.05267993.6423061.13576546.9041461.1884454.2618399.49163399.4166874.81423454.4158539h1.89c.42854706-.0031371.8088492-.2753534.95-.68l1.1-3.32h8.34l1.1 3.32c.1411508.4046466.5214529.6768629.95.68h1.89c.3226006.0008335.6257891-.154014.8142345-.4158539.1884454-.26184.2389991-.598508.1357655-.9041461zm-11.89-6.68 2.83-8.5 2.83 8.5z" fill="#f29c1f"/><path id="Shape" d="m57.99 18.9c.1737411 3.4307522-1.0826768 6.779993-3.47 9.25-2.4830403 2.508925-5.8804393 3.8989341-9.41 3.85h-32.22c-3.60171015-.0556939-6.59991941 2.7523634-6.78 6.35-.04753843 1.9717733.80209858 3.8586295 2.31 5.13 1.25375323 1.0086312 2.8211071 1.546414 4.43 1.52h10.15v-3.28c.002248-.3564235.192928-.6850489.5012516-.8638766.3083236-.1788276.6882552-.181157.9987484-.0061234l10.98 6.28c.3133105.1775612.5069483.509873.5069483.87s-.1936378.6924388-.5069483.87l-10.98 6.28c-.3104932.1750336-.6904248.1727042-.9987484-.0061234-.3083236-.1788277-.4990036-.5074531-.5012516-.8638766v-3.28h-10c-3.53216036.0471494-6.93198773-1.3423767-9.42-3.85-2.38046964-2.4737006-3.63265065-5.8212944-3.46-9.25.4571567-6.7511743 6.10375027-11.9721893 12.87-11.9h32.26c1.6122162.0281683 3.183302-.5096809 4.44-1.52 1.5079014-1.2713705 2.3575384-3.1582267 2.31-5.13-.1800806-3.5976366-3.1782899-6.4056939-6.78-6.35h-10.24v3.28c-.000611.354903-.1892836.6828935-.4957672.861847-.3064835.1789535-.6848557.1820562-.9942328.008153l-10.99-6.28c-.3133105-.1775612-.5069483-.509873-.5069483-.87 0-.36012696.1936378-.69243878.5069483-.87l10.99-6.28c.3093771-.17390325.6877493-.17080049.9942328.00815298.3064836.17895348.4951562.50694403.4957672.86184702v3.28h10.14c6.7662497-.07218933 12.4128433 5.1488257 12.87 11.9z" fill="#e64c3c"/></g></g></svg>