<svg id="Capa_1" enable-background="new 0 0 512 512" height="512" viewBox="0 0 512 512" width="512" xmlns="http://www.w3.org/2000/svg"><path d="m331.738 512h-259.119c9.292-80.796 44.534-109.363 51.395-114.215h156.328c6.862 4.852 42.104 33.419 51.396 114.215z" fill="#b9e4ef"/><path d="m154.793 397.785c-4.162 4.852-25.517 33.419-31.152 114.215h-51.024c9.292-80.796 44.534-109.363 51.395-114.215z" fill="#7ad0df"/><path d="m285.957 469.629v42.371h-15.453v-42.371c0-4.265 3.461-7.726 7.726-7.726 4.266 0 7.727 3.461 7.727 7.726z" fill="#67c0c9"/><path d="m133.853 469.629v42.371h-15.453v-42.371c0-4.265 3.461-7.726 7.726-7.726s7.727 3.461 7.727 7.726z" fill="#67c0c9"/><path d="m280.343 397.785-40.505 42.648-37.659-38.112-37.66 38.112-40.504-42.648" fill="#7ad0df"/><path d="m209.9 386.278v125.722h-15.453v-125.722c0-4.275 3.461-7.726 7.726-7.726 4.276 0 7.727 3.451 7.727 7.726z" fill="#7ad0df"/><path d="m345.027 255.364-192.395.824-95.538.402c-7.283-66.498-28.422-152.857 49.242-168.247 18.646-3.698 35.438-5.893 50.53-6.923 101.091-6.861 126.237 38.786 126.237 38.786s18.296-16.071 38.188-14.433c7.191.587 14.598 3.503 21.417 10.322 35.974 35.974 2.319 139.269 2.319 139.269z" fill="#665e66"/><path d="m321.291 105.773c-23.632 16.235-39.095 64.818-46.255 92.509-7.005-28.206 1.556-59.255 8.066-78.077.001 0 18.297-16.07 38.189-14.432z" fill="#454045"/><path d="m141.98 184.519 10.652 71.669-95.538.402c-7.283-66.498-28.422-152.857 49.242-168.247 18.646-3.698 35.438-5.893 50.53-6.923 0 .01-.01.01-.01.01-38.889 23.92-26.878 66.528-14.876 103.089z" fill="#454045"/><path d="m332.296 309.09h.182c15.647 0 28.326-12.689 28.326-28.326 0-15.647-12.679-28.337-28.326-28.337-.204 0-.407 0-.611.011h-259.382c-.204-.011-.407-.011-.611-.011-15.647 0-28.326 12.689-28.326 28.337 0 15.637 12.679 28.326 28.326 28.326h.182" fill="#f1b986"/><path d="m332.572 287.402c0 14.917-.381 29.844-1.143 44.761-1.906 37.292-31.75 66.982-69.063 68.743-26.084 1.236-52.178 1.659-78.262 1.288h-.01c-14.041-.196-28.072-.628-42.113-1.288-37.303-1.762-67.147-31.451-69.063-68.743-1.36-26.578-1.504-53.146-.443-79.725h.01c14.546-5.388 23.199-22.138 28.34-40.764 5.274-19.11 23.581-29.556 41.155-27.155 6.851.937 13.598 3.832 19.408 8.921 11.672 10.219 26.228 15.329 40.784 15.329s29.123-5.11 40.795-15.329c7.232-6.336 15.896-9.261 24.425-9.261 15.916 0 31.358 10.199 36.138 27.495 5.13 18.625 13.784 35.376 28.34 40.764.475 11.662.702 23.313.702 34.964z" fill="#f1d0a5"/><path d="m184.093 402.194c-14.041-.196-28.072-.628-42.113-1.288-37.303-1.762-67.147-31.451-69.063-68.743-1.36-26.578-1.504-53.146-.443-79.725h.01c14.546-5.388 23.199-22.138 28.34-40.764 5.274-19.11 23.581-29.556 41.155-27.155-13.34 119.119.001 216.367 42.114 217.675z" fill="#f1b986"/><path d="m202.176 345.761c-14.236 0-27.379-8.312-33.484-21.175-1.83-3.855-.188-8.463 3.667-10.293 3.856-1.829 8.464-.188 10.293 3.667 3.56 7.501 11.224 12.348 19.524 12.348s15.964-4.847 19.524-12.348c1.829-3.855 6.438-5.497 10.293-3.667s5.497 6.438 3.667 10.293c-6.105 12.863-19.248 21.175-33.484 21.175z" fill="#df6b57"/><ellipse cx="141.861" cy="270.814" fill="#454045" rx="11.78" ry="17.541"/><path d="m262.491 253.273c-6.495 0-11.78 7.869-11.78 17.541s5.285 17.541 11.78 17.541 11.78-7.869 11.78-17.541-5.284-17.541-11.78-17.541z" fill="#454045"/><circle cx="369.314" cy="99.144" fill="#f6e738" r="99.138"/><path d="m380.96 197.597c-3.822.453-7.706.68-11.651.68-54.754 0-99.133-44.39-99.133-99.133-.001-54.754 44.379-99.144 99.133-99.144 3.946 0 7.829.227 11.651.68-49.263 5.759-87.492 47.645-87.492 98.464-.001 50.808 38.229 92.694 87.492 98.453z" fill="#dac82e"/><g fill="#df751c"><path d="m369.314 156.657c-4.379 0-7.941 3.562-7.941 7.941 0 4.378 3.562 7.941 7.941 7.941 4.378 0 7.941-3.562 7.941-7.941 0-4.378-3.563-7.941-7.941-7.941z"/><path d="m409.831 64.149c-1.096-21.116-18.527-37.991-39.684-38.417-20.54-.396-38.18 14.597-41.015 34.914-.26 1.857-.391 3.759-.391 5.65 0 4.267 3.459 7.726 7.726 7.726s7.726-3.459 7.726-7.726c0-1.179.081-2.36.243-3.513 1.754-12.572 12.686-21.85 25.4-21.602 13.095.264 23.885 10.704 24.563 23.768.362 6.971-2.078 13.589-6.869 18.636-4.795 5.05-11.264 7.831-18.217 7.831-4.267 0-7.726 3.459-7.726 7.726v34.347c0 4.267 3.459 7.726 7.726 7.726s7.726-3.459 7.726-7.726v-27.347c8.244-1.574 15.765-5.671 21.696-11.918 7.739-8.148 11.679-18.83 11.096-30.075z"/></g></svg>